<svg
        width="32"
        height="26"
        viewBox="0 0 32 26"
        fill="none"
        xmlns="http://www.w3.org/2000/svg"
>
    <g clip-path="url(#clip0_695_9598)">
        <path
                d="M18.1025 12.9787L21.2222 16.4398L25.4174 19.0417L26.1472 13.0006L25.4174 7.0957L21.1418 9.38138L18.1025 12.9787Z"
                fill="#00832D"
        ></path>
        <path
                d="M0 18.4791V23.627C0 24.8024 0.983 25.7567 2.19425 25.7567H7.498L8.59625 21.8671L7.498 18.4791L3.85925 17.4131L0.000125 18.4791H0Z"
                fill="#0066DA"
        ></path>
        <path
                d="M7.498 0.200195L0 7.47788L3.8595 8.54131L7.498 7.47788L8.57625 4.13592L7.498 0.200195Z"
                fill="#E94235"
        ></path>
        <path
                d="M0 18.4817H7.498V7.47754H0.000125L0 18.4817Z"
                fill="#2684FC"
        ></path>
        <path
                d="M30.2074 3.28133L25.4175 7.09537V19.0412L30.2271 22.8701C30.9471 23.4175 32.0004 22.9186 32.0004 22.0302V4.10417C32.0004 3.20599 30.922 2.70952 30.2072 3.28145"
                fill="#00AC47"
        ></path>
        <path
                d="M18.1028 12.9785V18.4792H7.49805V25.7569H23.2235C24.4348 25.7569 25.4177 24.8026 25.4177 23.6272V19.0415L18.1028 12.9785Z"
                fill="#00AC47"
        ></path>
        <path
                d="M23.2235 0.200195H7.49805V7.47787H18.1028V12.9786L25.4178 7.09545V2.33009C25.4178 1.15443 24.4348 0.200317 23.2235 0.200317"
                fill="#FFBA00"
        ></path>
    </g>
    <defs>
        <clipPath id="clip0_695_9598">
            <rect
                    width="32"
                    height="25.6"
                    fill="white"
                    transform="translate(0 0.200195)"
            ></rect>
        </clipPath>
    </defs>
</svg>